<svg xmlns="http://www.w3.org/2000/svg" width="512" height="512" viewBox="0 0 512 512" fill="#fff"><path fill-rule="evenodd" clip-rule="evenodd" d="M414.474 224.292h-35.869c2.613 10.145 4.156 20.744 4.156 31.699 0 70.023-56.752 126.773-126.761 126.773s-126.763-56.75-126.763-126.773c0-10.955 1.549-21.555 4.162-31.699h-35.869v174.318c0 8.742 7.096 15.832 15.86 15.832h285.219c8.766 0 15.864-7.09 15.864-15.832v-174.318zm0-110.914c0-8.75-7.099-15.846-15.864-15.846h-47.526c-8.756 0-15.846 7.096-15.846 15.846v47.545c0 8.744 7.09 15.846 15.846 15.846h47.526c8.766 0 15.864-7.102 15.864-15.846v-47.545zm-158.474 63.391c-43.763 0-79.233 35.463-79.233 79.223 0 43.756 35.471 79.24 79.233 79.24 43.759 0 79.237-35.484 79.237-79.24 0-43.761-35.478-79.223-79.237-79.223m158.474 285.23h-316.944c-26.246 0-47.53-21.289-47.53-47.557v-316.91c0-26.254 21.284-47.531 47.53-47.531h316.943c26.25 0 47.526 21.277 47.526 47.531v316.91c.001 26.268-21.275 47.557-47.525 47.557"/></svg>