<svg xmlns="http://www.w3.org/2000/svg" width="512" height="512" viewBox="0 0 512 512" fill="#fff"><path d="M156.226 199.679c7.541-7.54 15.902-13.757 24.794-18.659 49.556-27.318 113.117-12.788 144.97 35.518l-38.547 38.547c-11.059-25.227-38.5-39.565-65.813-33.456-10.282 2.3-20.054 7.427-28.039 15.413l-73.898 73.896c-22.433 22.433-22.432 58.936.002 81.369 22.433 22.433 58.935 22.433 81.368 0l22.78-22.779c20.71 8.217 42.938 11.508 64.862 9.863l-50.278 50.278c-43.105 43.105-112.991 43.105-156.096 0-43.105-43.104-43.106-112.991-.001-156.096l73.896-73.894zm117.348-117.349l-50.278 50.278c21.928-1.643 44.152 1.648 64.863 9.865l22.779-22.78c22.434-22.434 58.936-22.434 81.37 0 22.434 22.434 22.434 58.936 0 81.37l-73.897 73.895c-22.501 22.501-59.061 22.311-81.368 0-5.202-5.201-9.694-11.678-12.484-18.04l-38.546 38.546c4.049 6.142 8.261 11.453 13.666 16.858 13.949 13.95 31.698 24.339 52.117 29.251 26.466 6.37 54.823 2.839 79.185-10.592 8.892-4.903 17.254-11.119 24.794-18.659l73.896-73.895c43.105-43.105 43.105-112.991.001-156.097-43.106-43.105-112.992-43.105-156.098 0z"/></svg>