<svg xmlns="http://www.w3.org/2000/svg" width="512" height="512" viewBox="0 0 512 512" fill="#fff"><path d="M231.696 345.431l-15.105-41.057s-24.542 27.373-61.348 27.373c-32.568 0-55.691-28.317-55.691-73.623 0-58.047 29.258-78.812 58.05-78.812 41.527 0 54.741 26.899 66.069 61.353l15.105 47.194c15.098 45.774 43.415 82.586 125.059 82.586 58.525 0 98.165-17.932 98.165-65.125 0-38.226-21.712-58.049-62.3-67.489l-30.203-6.605c-20.764-4.72-26.897-13.216-26.897-27.372 0-16.046 12.739-25.487 33.509-25.487 22.652 0 34.92 8.496 36.81 28.79l47.192-5.665c-3.774-42.473-33.032-59.935-81.17-59.935-42.475 0-84.005 16.046-84.005 67.487 0 32.092 15.574 52.387 54.741 61.823l32.096 7.548c24.068 5.665 32.088 15.575 32.088 29.264 0 17.459-16.988 24.539-49.081 24.539-47.664 0-67.481-25.012-78.81-59.467l-15.576-47.189c-19.817-61.352-51.44-84.005-114.208-84.005-69.374-.001-106.186 43.887-106.186 118.453 0 71.737 36.812 110.433 102.884 110.433 53.322-.001 78.812-25.012 78.812-25.012z"/></svg>