<svg xmlns="http://www.w3.org/2000/svg" width="512" height="512" viewBox="0 0 512 512" fill="#fff"><path d="M445.115 289.693c1.918-10.9 2.977-22.094 2.977-33.544 0-106.172-86.072-192.241-192.245-192.241-12.098 0-23.919 1.169-35.398 3.308-16.979-10.338-36.917-16.292-58.252-16.292-61.968 0-112.197 50.228-112.197 112.196 0 21.597 6.116 41.756 16.686 58.872-1.99 11.094-3.084 22.491-3.084 34.157 0 106.177 86.069 192.249 192.245 192.249 12.322 0 24.354-1.207 36.027-3.422 16.913 10.217 36.73 16.1 57.931 16.1 61.964 0 112.195-50.232 112.195-112.199 0-21.729-6.195-42.002-16.885-59.184zm-182.493 100.975c-54.751 0-109.781-24.822-109.502-67.557.085-12.891 9.714-24.725 22.519-24.725 32.232 0 31.938 47.906 83.268 47.906 36.023 0 48.311-19.648 48.311-33.336 0-49.453-155.657-19.135-155.657-112.151 0-50.335 41.355-85.062 106.354-81.243 61.995 3.642 98.314 30.908 101.837 56.379 1.735 16.632-9.334 29.574-28.541 29.574-28.038 0-30.908-37.384-79.184-37.384-21.784 0-40.181 9.052-40.181 28.7 0 41.062 154.738 17.22 154.738 107.588-.001 52.102-41.705 86.249-103.962 86.249z"/></svg>