<svg xmlns="http://www.w3.org/2000/svg" width="512" height="512" viewBox="0 0 512 512" fill="#fff"><path d="M307.783 406.887l-162.61.076-.014-34.728 162.603-.084.021 34.736zm109.879-196.68l-27.817-160.207-34.221 5.938 27.813 160.207 34.225-5.938zm-105.969 117.416l-161.916-14.919-3.188 34.589 161.919 14.905 3.185-34.575zm10.682-45.319l-157.025-42.21-9.022 33.535 157.036 42.215 9.011-33.54zm20.5-39.724l-140.058-82.607-17.652 29.904 140.065 82.612 17.645-29.909zm34.343-24.324l-91.615-134.348-28.696 19.565 91.619 134.342 28.692-19.559zm-41.82 74.39v141.974h-213.281v-141.974h-27.779v169.223h268.699v-169.223h-27.639z"/></svg>