<svg version="1.1" id="Layer_1" xmlns="http://www.w3.org/2000/svg" xmlns:xlink="http://www.w3.org/1999/xlink" x="0px" y="0px"
	 viewBox="0 0 1190.55 841.89" enable-background="new 0 0 1190.55 841.89"
	 xml:space="preserve" fill="#333">
<path fill="#1D1D1B" d="M646.052,416.479l-1.428,8.441h3.065l-1.385-8.441H646.052z M591.703,414.127
	c-1.218,0-2.226,0.756-2.226,2.646v10.542c0,1.848,1.008,2.604,2.226,2.604c1.218,0,2.226-0.756,2.226-2.604v-10.542
	C593.929,414.883,592.921,414.127,591.703,414.127z M512.574,414.841h-0.924v14.322h0.924c1.554,0,2.268-0.672,2.268-2.562v-9.197
	C514.842,415.471,514.128,414.841,512.574,414.841z M503.012,406.001v32.001h184.916v-32.001H503.012z M521.604,425.719
	c0,8.063-3.528,10.206-10.29,10.206h-6.384V408.08h6.384c6.762,0,10.29,2.142,10.29,10.206V425.719z M533.995,435.925h-6.72V408.08
	h6.72V435.925z M547.729,436.765c-4.452,0-8.567-2.353-8.357-9.828h5.963c-0.084,2.646,0.63,3.738,2.142,3.738
	c1.302,0,1.806-0.756,1.806-1.806c0-0.631-0.084-1.596-1.68-2.771l-3.108-2.269c-3.99-2.939-4.998-5.586-4.998-8.946
	c0-4.704,4.116-7.644,8.399-7.644c4.158,0,8.358,2.268,8.148,9.87h-5.964c0.084-2.52-0.504-3.906-2.058-3.906
	c-1.386,0-1.932,0.756-1.932,1.806c0,0.714,0.294,1.722,1.68,2.772l3.696,2.772c3.948,2.982,4.704,5.459,4.704,8.148
	C556.17,433.699,552.307,436.765,547.729,436.765z M569.568,429.961c1.344,0,1.974-0.84,1.89-4.116h6.426
	c0.21,9.03-4.494,10.92-8.274,10.92c-3.276,0-8.567-1.302-8.567-9.155v-11.172c0-7.77,5.25-9.198,8.567-9.198
	c3.696,0,8.442,1.848,8.274,10.5h-6.426c0.084-2.73-0.546-3.612-1.89-3.612c-1.302,0-1.848,0.882-1.848,2.478v10.877
	C567.721,429.205,568.393,429.961,569.568,429.961z M600.648,427.398c0,6.721-4.326,9.366-8.945,9.366
	c-4.62,0-8.946-2.521-8.946-9.323v-10.836c0-6.593,4.326-9.365,8.946-9.365c4.619,0,8.945,2.772,8.945,9.324V427.398z
	 M619.928,435.925h-13.523V408.08h6.635v21.125h6.889V435.925z M631.479,435.925h-6.721V408.08h6.721V435.925z M649.706,435.925
	l-0.966-5.166h-5.25l-0.967,5.166h-6.678l6.553-27.845h7.812l6.384,27.845H649.706z M686.036,435.925h-6.3v-15.876h-0.252
	l-3.57,15.876h-4.83l-3.569-15.876h-0.252v15.876h-6.3V408.08h8.484l3.905,14.742h0.252l3.948-14.742h8.483V435.925z"/>
</svg>
