<?xml version="1.0" encoding="utf-8"?>
<!-- Generator: Adobe Illustrator 15.0.2, SVG Export Plug-In  -->
<!DOCTYPE svg PUBLIC "-//W3C//DTD SVG 1.1//EN" "http://www.w3.org/Graphics/SVG/1.1/DTD/svg11.dtd" [
	<!ENTITY ns_flows "http://ns.adobe.com/Flows/1.0/">
]>
<svg version="1.1"
	 xmlns="http://www.w3.org/2000/svg" xmlns:xlink="http://www.w3.org/1999/xlink" xmlns:a="http://ns.adobe.com/AdobeSVGViewerExtensions/3.0/"
	 x="0px" y="0px" width="185px" height="32px" viewBox="-0.0122 0.001 185 32"
	 overflow="visible" enable-background="new -0.0122 0.001 185 32" xml:space="preserve">
<defs>
</defs>
<path fill="#1D1D1B" d="M143.0396,10.4785l-1.4277,8.4414h3.0654l-1.3848-8.4414H143.0396z M88.6909,8.126
	c-1.2183,0-2.2261,0.7559-2.2261,2.6465v10.542c0,1.8477,1.0078,2.6035,2.2261,2.6035c1.2178,0,2.2256-0.7559,2.2256-2.6035v-10.542
	C90.9165,8.8818,89.9087,8.126,88.6909,8.126z M9.562,8.8408H8.6377v14.3213H9.562c1.5537,0,2.2676-0.6719,2.2676-2.5625v-9.1973
	C11.8296,9.4697,11.1157,8.8408,9.562,8.8408z M0,0v32.001h184.9155V0H0z M18.5913,19.7178c0,8.0635-3.5278,10.2061-10.2896,10.2061
	H1.918V2.0786h6.3838c6.7617,0,10.2896,2.1416,10.2896,10.2056V19.7178z M30.9824,29.9238h-6.7197V2.0786h6.7197V29.9238z
	 M44.7163,30.7637c-4.4517,0-8.5674-2.3525-8.3574-9.8281h5.9634c-0.084,2.6465,0.6304,3.7383,2.1421,3.7383
	c1.3022,0,1.8062-0.7559,1.8062-1.8057c0-0.6309-0.084-1.5957-1.6802-2.7715l-3.1079-2.2686
	c-3.9897-2.9395-4.9976-5.5859-4.9976-8.9463c0-4.7031,4.1157-7.6431,8.3994-7.6431c4.1582,0,8.3579,2.2681,8.1479,9.8696h-5.9639
	c0.084-2.5195-0.5039-3.9062-2.0581-3.9062c-1.3857,0-1.9316,0.7559-1.9316,1.8066c0,0.7139,0.2939,1.7217,1.6797,2.7715
	l3.6958,2.7715c3.9482,2.9824,4.7041,5.46,4.7041,8.1484C53.1582,27.6982,49.2944,30.7637,44.7163,30.7637z M66.5562,23.96
	c1.3442,0,1.9741-0.8398,1.8901-4.1162h6.4258c0.21,9.0303-4.4937,10.9199-8.2739,10.9199c-3.2759,0-8.5674-1.3018-8.5674-9.1553
	V10.4365c0-7.7695,5.2495-9.1978,8.5674-9.1978c3.6963,0,8.4419,1.8477,8.2739,10.4995h-6.4258
	c0.084-2.7295-0.5459-3.6123-1.8901-3.6123c-1.3018,0-1.8477,0.8828-1.8477,2.4785v10.877
	C64.7085,23.2041,65.3804,23.96,66.5562,23.96z M97.6362,21.3975c0,6.7207-4.3262,9.3662-8.9453,9.3662
	c-4.6201,0-8.9458-2.5205-8.9458-9.3232V10.6045c0-6.5938,4.3257-9.3657,8.9458-9.3657c4.6191,0,8.9453,2.772,8.9453,9.3237V21.3975
	z M116.9155,29.9238h-13.5234V2.0786h6.6348v21.1255h6.8887V29.9238z M128.4663,29.9238h-6.7207V2.0786h6.7207V29.9238z
	 M146.6938,29.9238l-0.9658-5.166h-5.25l-0.9668,5.166h-6.6777l6.5527-27.8452h7.8115l6.3838,27.8452H146.6938z M183.0239,29.9238
	h-6.2998v-15.876h-0.252l-3.5703,15.876h-4.8301l-3.5693-15.876h-0.252v15.876h-6.2998V2.0786h8.4844l3.9053,14.7417h0.252
	l3.9482-14.7417h8.4834V29.9238z"/>
</svg>
