<!DOCTYPE svg PUBLIC "-//W3C//DTD SVG 1.1//EN" "http://www.w3.org/Graphics/SVG/1.1/DTD/svg11.dtd" [
	<!ENTITY ns_flows "http://ns.adobe.com/Flows/1.0/">
]><svg xmlns="http://www.w3.org/2000/svg" width="185" height="32" viewBox="-0.0122 0.001 185 32" overflow="visible" enable-background="new -0.0122 0.001 185 32"><path fill="#1D1D1B" d="M143.04 10.479l-1.428 8.441h3.065l-1.385-8.441h-.253zm-54.349-2.353c-1.218 0-2.226.756-2.226 2.647v10.542c0 1.848 1.008 2.603 2.226 2.603s2.226-.756 2.226-2.603v-10.542c0-1.891-1.008-2.646-2.226-2.646zm-79.129.715h-.924v14.321h.924c1.554 0 2.268-.672 2.268-2.563v-9.197c0-1.933-.714-2.562-2.268-2.562zm-9.562-8.841v32.001h184.916v-32.001h-184.916zm18.591 19.718c0 8.063-3.528 10.206-10.29 10.206h-6.384v-27.845h6.384c6.762 0 10.29 2.142 10.29 10.206v7.434zm12.391 10.206h-6.72v-27.845h6.72v27.845zm13.734.84c-4.452 0-8.567-2.353-8.357-9.828h5.963c-.084 2.647.63 3.738 2.142 3.738 1.302 0 1.806-.756 1.806-1.806 0-.631-.084-1.596-1.68-2.772l-3.108-2.269c-3.99-2.939-4.998-5.586-4.998-8.946 0-4.703 4.116-7.643 8.399-7.643 4.158 0 8.358 2.268 8.148 9.87h-5.964c.084-2.519-.504-3.906-2.058-3.906-1.386 0-1.932.756-1.932 1.807 0 .714.294 1.722 1.68 2.772l3.696 2.772c3.948 2.982 4.704 5.46 4.704 8.148 0 4.998-3.864 8.064-8.442 8.064zm21.84-6.804c1.344 0 1.974-.84 1.89-4.116h6.426c.21 9.03-4.494 10.92-8.274 10.92-3.276 0-8.567-1.302-8.567-9.155v-11.172c0-7.769 5.25-9.198 8.567-9.198 3.696 0 8.442 1.848 8.274 10.499h-6.426c.084-2.729-.546-3.612-1.89-3.612-1.302 0-1.848.883-1.848 2.478v10.877c0 1.723.672 2.479 1.848 2.479zm31.08-2.563c0 6.721-4.326 9.366-8.945 9.366-4.62 0-8.946-2.521-8.946-9.323v-10.836c0-6.594 4.326-9.366 8.946-9.366 4.619 0 8.945 2.772 8.945 9.324v10.835zm19.279 8.526h-13.523v-27.845h6.635v21.125h6.889v6.72zm11.551 0h-6.721v-27.845h6.721v27.845zm18.228 0l-.966-5.166h-5.25l-.967 5.166h-6.678l6.553-27.845h7.811l6.384 27.845h-6.888zm36.33 0h-6.3v-15.876h-.252l-3.57 15.876h-4.83l-3.569-15.876h-.252v15.876h-6.3v-27.845h8.484l3.905 14.742h.252l3.948-14.742h8.483v27.845z"/></svg>